<mxfile host="app.diagrams.net" modified="2022-03-10T13:29:08.608Z" agent="5.0 (Macintosh)" etag="Glmn_-m9BDKfsv9kvWNO" version="16.6.6" type="github">
  <diagram id="C5RBs43oDa-KdzZeNtuy" name="Page-1">
    <mxGraphModel dx="978" dy="712" grid="1" gridSize="10" guides="1" tooltips="1" connect="1" arrows="1" fold="1" page="1" pageScale="1" pageWidth="827" pageHeight="1169" math="0" shadow="0">
      <root>
        <mxCell id="WIyWlLk6GJQsqaUBKTNV-0" />
        <mxCell id="WIyWlLk6GJQsqaUBKTNV-1" parent="WIyWlLk6GJQsqaUBKTNV-0" />
        <mxCell id="EBr2hTtmOAlG6zHz0Neu-5" value="Diagrama" style="html=1;" vertex="1" parent="WIyWlLk6GJQsqaUBKTNV-1">
          <mxGeometry x="40" y="270" width="110" height="50" as="geometry" />
        </mxCell>
        <mxCell id="EBr2hTtmOAlG6zHz0Neu-6" value="&lt;div&gt;Diagrama &lt;br&gt;&lt;/div&gt;&lt;div&gt;Estructural&lt;/div&gt;" style="html=1;" vertex="1" parent="WIyWlLk6GJQsqaUBKTNV-1">
          <mxGeometry x="200" y="160" width="110" height="50" as="geometry" />
        </mxCell>
        <mxCell id="EBr2hTtmOAlG6zHz0Neu-7" value="&lt;div&gt;Diagrama &lt;br&gt;&lt;/div&gt;&lt;div&gt;Comportamiento&lt;/div&gt;" style="html=1;" vertex="1" parent="WIyWlLk6GJQsqaUBKTNV-1">
          <mxGeometry x="200" y="450" width="110" height="50" as="geometry" />
        </mxCell>
        <mxCell id="EBr2hTtmOAlG6zHz0Neu-9" value="" style="endArrow=block;endSize=16;endFill=0;html=1;rounded=0;entryX=1;entryY=0.5;entryDx=0;entryDy=0;exitX=0.25;exitY=0;exitDx=0;exitDy=0;" edge="1" parent="WIyWlLk6GJQsqaUBKTNV-1" source="EBr2hTtmOAlG6zHz0Neu-7" target="EBr2hTtmOAlG6zHz0Neu-5">
          <mxGeometry width="160" relative="1" as="geometry">
            <mxPoint x="230" y="360" as="sourcePoint" />
            <mxPoint x="490" y="370" as="targetPoint" />
            <Array as="points">
              <mxPoint x="228" y="295" />
            </Array>
          </mxGeometry>
        </mxCell>
        <mxCell id="EBr2hTtmOAlG6zHz0Neu-10" value="" style="endArrow=block;endSize=16;endFill=0;html=1;rounded=0;exitX=0.25;exitY=1;exitDx=0;exitDy=0;" edge="1" parent="WIyWlLk6GJQsqaUBKTNV-1" source="EBr2hTtmOAlG6zHz0Neu-6" target="EBr2hTtmOAlG6zHz0Neu-5">
          <mxGeometry width="160" relative="1" as="geometry">
            <mxPoint x="330" y="350" as="sourcePoint" />
            <mxPoint x="490" y="350" as="targetPoint" />
            <Array as="points">
              <mxPoint x="228" y="295" />
            </Array>
          </mxGeometry>
        </mxCell>
        <mxCell id="EBr2hTtmOAlG6zHz0Neu-11" value="&lt;div&gt;Diagrama &lt;br&gt;&lt;/div&gt;&lt;div&gt;Clase&lt;/div&gt;" style="html=1;" vertex="1" parent="WIyWlLk6GJQsqaUBKTNV-1">
          <mxGeometry x="380" y="10" width="110" height="50" as="geometry" />
        </mxCell>
        <mxCell id="EBr2hTtmOAlG6zHz0Neu-13" value="" style="endArrow=block;endSize=16;endFill=0;html=1;rounded=0;exitX=0;exitY=0.5;exitDx=0;exitDy=0;entryX=1;entryY=0.5;entryDx=0;entryDy=0;" edge="1" parent="WIyWlLk6GJQsqaUBKTNV-1" source="EBr2hTtmOAlG6zHz0Neu-11" target="EBr2hTtmOAlG6zHz0Neu-6">
          <mxGeometry width="160" relative="1" as="geometry">
            <mxPoint x="440" y="220" as="sourcePoint" />
            <mxPoint x="600" y="220" as="targetPoint" />
            <Array as="points">
              <mxPoint x="360" y="35" />
              <mxPoint x="360" y="185" />
            </Array>
          </mxGeometry>
        </mxCell>
        <mxCell id="EBr2hTtmOAlG6zHz0Neu-14" value="&lt;div&gt;Diagrama &lt;br&gt;&lt;/div&gt;&lt;div&gt;Estructura Interna&lt;br&gt;&lt;/div&gt;" style="html=1;" vertex="1" parent="WIyWlLk6GJQsqaUBKTNV-1">
          <mxGeometry x="380" y="85" width="110" height="50" as="geometry" />
        </mxCell>
        <mxCell id="EBr2hTtmOAlG6zHz0Neu-15" value="&lt;div&gt;Diagrama &lt;br&gt;&lt;/div&gt;&lt;div&gt;Actividad&lt;br&gt;&lt;/div&gt;" style="html=1;" vertex="1" parent="WIyWlLk6GJQsqaUBKTNV-1">
          <mxGeometry x="380" y="410" width="110" height="50" as="geometry" />
        </mxCell>
        <mxCell id="EBr2hTtmOAlG6zHz0Neu-16" value="&lt;div&gt;Diagrama &lt;br&gt;&lt;/div&gt;&lt;div&gt;Componentes&lt;br&gt;&lt;/div&gt;" style="html=1;" vertex="1" parent="WIyWlLk6GJQsqaUBKTNV-1">
          <mxGeometry x="540" y="45" width="110" height="50" as="geometry" />
        </mxCell>
        <mxCell id="EBr2hTtmOAlG6zHz0Neu-17" value="&lt;div&gt;Diagrama &lt;br&gt;&lt;/div&gt;&lt;div&gt;Despliegue&lt;br&gt;&lt;/div&gt;" style="html=1;" vertex="1" parent="WIyWlLk6GJQsqaUBKTNV-1">
          <mxGeometry x="540" y="120" width="110" height="50" as="geometry" />
        </mxCell>
        <mxCell id="EBr2hTtmOAlG6zHz0Neu-18" value="&lt;div&gt;Diagrama &lt;br&gt;&lt;/div&gt;&lt;div&gt;Objeto&lt;br&gt;&lt;/div&gt;" style="html=1;" vertex="1" parent="WIyWlLk6GJQsqaUBKTNV-1">
          <mxGeometry x="380" y="160" width="110" height="50" as="geometry" />
        </mxCell>
        <mxCell id="EBr2hTtmOAlG6zHz0Neu-19" value="&lt;div&gt;Diagrama &lt;br&gt;&lt;/div&gt;&lt;div&gt;Caso Uso&lt;br&gt;&lt;/div&gt;" style="html=1;" vertex="1" parent="WIyWlLk6GJQsqaUBKTNV-1">
          <mxGeometry x="380" y="340" width="110" height="50" as="geometry" />
        </mxCell>
        <mxCell id="EBr2hTtmOAlG6zHz0Neu-20" value="&lt;div&gt;Diagrama &lt;br&gt;&lt;/div&gt;&lt;div&gt;Maquina Estado&lt;br&gt;&lt;/div&gt;" style="html=1;" vertex="1" parent="WIyWlLk6GJQsqaUBKTNV-1">
          <mxGeometry x="380" y="480" width="110" height="50" as="geometry" />
        </mxCell>
        <mxCell id="EBr2hTtmOAlG6zHz0Neu-21" value="&lt;div&gt;Diagrama &lt;br&gt;&lt;/div&gt;&lt;div&gt;Interacción&lt;br&gt;&lt;/div&gt;" style="html=1;" vertex="1" parent="WIyWlLk6GJQsqaUBKTNV-1">
          <mxGeometry x="380" y="585" width="110" height="50" as="geometry" />
        </mxCell>
        <mxCell id="EBr2hTtmOAlG6zHz0Neu-22" value="&lt;div&gt;Diagrama &lt;br&gt;&lt;/div&gt;&lt;div&gt;Secuencia&lt;br&gt;&lt;/div&gt;" style="html=1;flipV=1;flipH=1;" vertex="1" parent="WIyWlLk6GJQsqaUBKTNV-1">
          <mxGeometry x="560" y="490" width="110" height="50" as="geometry" />
        </mxCell>
        <mxCell id="EBr2hTtmOAlG6zHz0Neu-23" value="&lt;div&gt;Diagrama &lt;br&gt;&lt;/div&gt;&lt;div&gt;Comunicación&lt;br&gt;&lt;/div&gt;" style="html=1;flipV=1;flipH=1;" vertex="1" parent="WIyWlLk6GJQsqaUBKTNV-1">
          <mxGeometry x="560" y="557" width="110" height="50" as="geometry" />
        </mxCell>
        <mxCell id="EBr2hTtmOAlG6zHz0Neu-24" value="&lt;div&gt;Diagrama &lt;br&gt;&lt;/div&gt;&lt;div&gt;General Interacción&lt;br&gt;&lt;/div&gt;" style="html=1;flipV=1;flipH=1;" vertex="1" parent="WIyWlLk6GJQsqaUBKTNV-1">
          <mxGeometry x="560" y="623" width="110" height="50" as="geometry" />
        </mxCell>
        <mxCell id="EBr2hTtmOAlG6zHz0Neu-25" value="&lt;div&gt;Diagrama &lt;br&gt;&lt;/div&gt;&lt;div&gt;Tiempo&lt;br&gt;&lt;/div&gt;" style="html=1;flipV=1;flipH=1;" vertex="1" parent="WIyWlLk6GJQsqaUBKTNV-1">
          <mxGeometry x="560" y="690" width="110" height="50" as="geometry" />
        </mxCell>
        <mxCell id="EBr2hTtmOAlG6zHz0Neu-26" value="&lt;div&gt;Diagrama &lt;br&gt;&lt;/div&gt;&lt;div&gt;Perfil&lt;br&gt;&lt;/div&gt;" style="html=1;" vertex="1" parent="WIyWlLk6GJQsqaUBKTNV-1">
          <mxGeometry x="380" y="230" width="110" height="50" as="geometry" />
        </mxCell>
        <mxCell id="EBr2hTtmOAlG6zHz0Neu-27" value="" style="endArrow=block;endSize=16;endFill=0;html=1;rounded=0;exitX=0;exitY=0.5;exitDx=0;exitDy=0;entryX=1;entryY=0.5;entryDx=0;entryDy=0;" edge="1" parent="WIyWlLk6GJQsqaUBKTNV-1" source="EBr2hTtmOAlG6zHz0Neu-14" target="EBr2hTtmOAlG6zHz0Neu-6">
          <mxGeometry width="160" relative="1" as="geometry">
            <mxPoint x="390" y="45" as="sourcePoint" />
            <mxPoint x="320" y="195" as="targetPoint" />
            <Array as="points">
              <mxPoint x="360" y="110" />
              <mxPoint x="360" y="185" />
            </Array>
          </mxGeometry>
        </mxCell>
        <mxCell id="EBr2hTtmOAlG6zHz0Neu-29" value="" style="endArrow=block;endSize=16;endFill=0;html=1;rounded=0;exitX=0;exitY=0.5;exitDx=0;exitDy=0;entryX=1;entryY=0.5;entryDx=0;entryDy=0;" edge="1" parent="WIyWlLk6GJQsqaUBKTNV-1" source="EBr2hTtmOAlG6zHz0Neu-16" target="EBr2hTtmOAlG6zHz0Neu-6">
          <mxGeometry width="160" relative="1" as="geometry">
            <mxPoint x="390" y="45" as="sourcePoint" />
            <mxPoint x="320" y="195" as="targetPoint" />
            <Array as="points">
              <mxPoint x="360" y="70" />
              <mxPoint x="360" y="185" />
            </Array>
          </mxGeometry>
        </mxCell>
        <mxCell id="EBr2hTtmOAlG6zHz0Neu-30" value="" style="endArrow=block;endSize=16;endFill=0;html=1;rounded=0;exitX=0;exitY=0.5;exitDx=0;exitDy=0;entryX=1;entryY=0.5;entryDx=0;entryDy=0;" edge="1" parent="WIyWlLk6GJQsqaUBKTNV-1" source="EBr2hTtmOAlG6zHz0Neu-17" target="EBr2hTtmOAlG6zHz0Neu-6">
          <mxGeometry width="160" relative="1" as="geometry">
            <mxPoint x="550" y="80" as="sourcePoint" />
            <mxPoint x="320" y="195" as="targetPoint" />
            <Array as="points">
              <mxPoint x="360" y="145" />
              <mxPoint x="360" y="185" />
            </Array>
          </mxGeometry>
        </mxCell>
        <mxCell id="EBr2hTtmOAlG6zHz0Neu-31" value="" style="endArrow=block;endSize=16;endFill=0;html=1;rounded=0;exitX=0;exitY=0.5;exitDx=0;exitDy=0;entryX=1;entryY=0.5;entryDx=0;entryDy=0;" edge="1" parent="WIyWlLk6GJQsqaUBKTNV-1" source="EBr2hTtmOAlG6zHz0Neu-18" target="EBr2hTtmOAlG6zHz0Neu-6">
          <mxGeometry width="160" relative="1" as="geometry">
            <mxPoint x="390" y="120" as="sourcePoint" />
            <mxPoint x="310" y="180" as="targetPoint" />
            <Array as="points" />
          </mxGeometry>
        </mxCell>
        <mxCell id="EBr2hTtmOAlG6zHz0Neu-32" value="" style="endArrow=block;endSize=16;endFill=0;html=1;rounded=0;exitX=0;exitY=0.5;exitDx=0;exitDy=0;entryX=1;entryY=0.5;entryDx=0;entryDy=0;" edge="1" parent="WIyWlLk6GJQsqaUBKTNV-1" source="EBr2hTtmOAlG6zHz0Neu-26" target="EBr2hTtmOAlG6zHz0Neu-6">
          <mxGeometry width="160" relative="1" as="geometry">
            <mxPoint x="390" y="195" as="sourcePoint" />
            <mxPoint x="320" y="195" as="targetPoint" />
            <Array as="points">
              <mxPoint x="360" y="255" />
              <mxPoint x="360" y="185" />
            </Array>
          </mxGeometry>
        </mxCell>
        <mxCell id="EBr2hTtmOAlG6zHz0Neu-33" value="" style="endArrow=block;endSize=16;endFill=0;html=1;rounded=0;exitX=0;exitY=0.5;exitDx=0;exitDy=0;entryX=1;entryY=0.5;entryDx=0;entryDy=0;" edge="1" parent="WIyWlLk6GJQsqaUBKTNV-1" source="EBr2hTtmOAlG6zHz0Neu-19" target="EBr2hTtmOAlG6zHz0Neu-7">
          <mxGeometry width="160" relative="1" as="geometry">
            <mxPoint x="237.5" y="220" as="sourcePoint" />
            <mxPoint x="160" y="305" as="targetPoint" />
            <Array as="points">
              <mxPoint x="360" y="365" />
              <mxPoint x="360" y="475" />
            </Array>
          </mxGeometry>
        </mxCell>
        <mxCell id="EBr2hTtmOAlG6zHz0Neu-34" value="" style="endArrow=block;endSize=16;endFill=0;html=1;rounded=0;exitX=0;exitY=0.5;exitDx=0;exitDy=0;entryX=1;entryY=0.5;entryDx=0;entryDy=0;" edge="1" parent="WIyWlLk6GJQsqaUBKTNV-1" source="EBr2hTtmOAlG6zHz0Neu-15" target="EBr2hTtmOAlG6zHz0Neu-7">
          <mxGeometry width="160" relative="1" as="geometry">
            <mxPoint x="390" y="375" as="sourcePoint" />
            <mxPoint x="320" y="485" as="targetPoint" />
            <Array as="points">
              <mxPoint x="360" y="435" />
              <mxPoint x="360" y="475" />
            </Array>
          </mxGeometry>
        </mxCell>
        <mxCell id="EBr2hTtmOAlG6zHz0Neu-35" value="" style="endArrow=block;endSize=16;endFill=0;html=1;rounded=0;exitX=0;exitY=0.5;exitDx=0;exitDy=0;entryX=1;entryY=0.5;entryDx=0;entryDy=0;" edge="1" parent="WIyWlLk6GJQsqaUBKTNV-1" source="EBr2hTtmOAlG6zHz0Neu-20" target="EBr2hTtmOAlG6zHz0Neu-7">
          <mxGeometry width="160" relative="1" as="geometry">
            <mxPoint x="390" y="445" as="sourcePoint" />
            <mxPoint x="320" y="485" as="targetPoint" />
            <Array as="points">
              <mxPoint x="360" y="505" />
              <mxPoint x="360" y="475" />
            </Array>
          </mxGeometry>
        </mxCell>
        <mxCell id="EBr2hTtmOAlG6zHz0Neu-36" value="" style="endArrow=block;endSize=16;endFill=0;html=1;rounded=0;exitX=0;exitY=0.5;exitDx=0;exitDy=0;entryX=1;entryY=0.5;entryDx=0;entryDy=0;" edge="1" parent="WIyWlLk6GJQsqaUBKTNV-1" source="EBr2hTtmOAlG6zHz0Neu-21" target="EBr2hTtmOAlG6zHz0Neu-7">
          <mxGeometry width="160" relative="1" as="geometry">
            <mxPoint x="390" y="515" as="sourcePoint" />
            <mxPoint x="320" y="485" as="targetPoint" />
            <Array as="points">
              <mxPoint x="360" y="610" />
              <mxPoint x="360" y="575" />
              <mxPoint x="360" y="475" />
            </Array>
          </mxGeometry>
        </mxCell>
        <mxCell id="EBr2hTtmOAlG6zHz0Neu-37" value="" style="endArrow=block;endSize=16;endFill=0;html=1;rounded=0;exitX=0;exitY=0.5;exitDx=0;exitDy=0;entryX=1;entryY=0.5;entryDx=0;entryDy=0;" edge="1" parent="WIyWlLk6GJQsqaUBKTNV-1" source="EBr2hTtmOAlG6zHz0Neu-22" target="EBr2hTtmOAlG6zHz0Neu-21">
          <mxGeometry width="160" relative="1" as="geometry">
            <mxPoint x="390" y="635" as="sourcePoint" />
            <mxPoint x="320" y="485" as="targetPoint" />
            <Array as="points">
              <mxPoint x="530" y="515" />
              <mxPoint x="530" y="610" />
            </Array>
          </mxGeometry>
        </mxCell>
        <mxCell id="EBr2hTtmOAlG6zHz0Neu-38" value="" style="endArrow=block;endSize=16;endFill=0;html=1;rounded=0;exitX=0;exitY=0.5;exitDx=0;exitDy=0;entryX=1;entryY=0.5;entryDx=0;entryDy=0;" edge="1" parent="WIyWlLk6GJQsqaUBKTNV-1" source="EBr2hTtmOAlG6zHz0Neu-23" target="EBr2hTtmOAlG6zHz0Neu-21">
          <mxGeometry width="160" relative="1" as="geometry">
            <mxPoint x="570" y="525" as="sourcePoint" />
            <mxPoint x="500" y="635" as="targetPoint" />
            <Array as="points">
              <mxPoint x="530" y="582" />
              <mxPoint x="530" y="610" />
            </Array>
          </mxGeometry>
        </mxCell>
        <mxCell id="EBr2hTtmOAlG6zHz0Neu-39" value="" style="endArrow=block;endSize=16;endFill=0;html=1;rounded=0;exitX=0;exitY=0.5;exitDx=0;exitDy=0;entryX=1;entryY=0.5;entryDx=0;entryDy=0;" edge="1" parent="WIyWlLk6GJQsqaUBKTNV-1" source="EBr2hTtmOAlG6zHz0Neu-24" target="EBr2hTtmOAlG6zHz0Neu-21">
          <mxGeometry width="160" relative="1" as="geometry">
            <mxPoint x="570" y="592" as="sourcePoint" />
            <mxPoint x="500" y="635" as="targetPoint" />
            <Array as="points">
              <mxPoint x="530" y="648" />
              <mxPoint x="530" y="610" />
            </Array>
          </mxGeometry>
        </mxCell>
        <mxCell id="EBr2hTtmOAlG6zHz0Neu-40" value="" style="endArrow=block;endSize=16;endFill=0;html=1;rounded=0;exitX=0;exitY=0.5;exitDx=0;exitDy=0;entryX=1;entryY=0.5;entryDx=0;entryDy=0;" edge="1" parent="WIyWlLk6GJQsqaUBKTNV-1" source="EBr2hTtmOAlG6zHz0Neu-25" target="EBr2hTtmOAlG6zHz0Neu-21">
          <mxGeometry width="160" relative="1" as="geometry">
            <mxPoint x="570" y="658" as="sourcePoint" />
            <mxPoint x="500" y="635" as="targetPoint" />
            <Array as="points">
              <mxPoint x="530" y="715" />
              <mxPoint x="530" y="610" />
            </Array>
          </mxGeometry>
        </mxCell>
      </root>
    </mxGraphModel>
  </diagram>
</mxfile>
